<mxfile host="app.diagrams.net" modified="2023-07-24T07:16:38.435Z" agent="Mozilla/5.0 (Windows NT 10.0; Win64; x64) AppleWebKit/537.36 (KHTML, like Gecko) Chrome/111.0.0.0 Safari/537.36" version="21.5.2" etag="tdInXSPLuC9oxpOwFbuC" type="github">
  <diagram name="第 1 页" id="1ec_RS1h40ruIxiW34ki">
    <mxGraphModel>
      <root>
        <mxCell id="0" />
        <mxCell id="1" parent="0" />
      </root>
    </mxGraphModel>
  </diagram>
</mxfile>
